Coordinates
version=1
nRows=15
nColumns=63
inDegrees=yes

Units are S.I. units (second, meters, Newtons, ...)
If the header above contains a line with 'inDegrees', this indicates whether rotational values are in degrees (yes) or radians (no).

endheader
time	pelvis_tilt	pelvis_list	pelvis_rotation	pelvis_tx	pelvis_ty	pelvis_tz	hip_flexion_r	hip_adduction_r	hip_rotation_r	knee_angle_r	knee_angle_r_beta	ankle_angle_r	subtalar_angle_r	mtp_angle_r	hip_flexion_l	hip_adduction_l	hip_rotation_l	knee_angle_l	knee_angle_l_beta	ankle_angle_l	subtalar_angle_l	mtp_angle_l	L5_S1_Flex_Ext	L5_S1_Lat_Bending	L5_S1_axial_rotation	L4_L5_Flex_Ext	L4_L5_Lat_Bending	L4_L5_axial_rotation	L3_L4_Flex_Ext	L3_L4_Lat_Bending	L3_L4_axial_rotation	L2_L3_Flex_Ext	L2_L3_Lat_Bending	L2_L3_axial_rotation	L1_L2_Flex_Ext	L1_L2_Lat_Bending	L1_L2_axial_rotation	L1_T12_Flex_Ext	L1_T12_Lat_Bending	L1_T12_axial_rotation	Abs_r3	Abs_r2	Abs_r1	Abs_t1	Abs_t2	neck_flexion	neck_bending	neck_rotation	arm_flex_r	arm_add_r	arm_rot_r	elbow_flex_r	pro_sup_r	wrist_flex_r	wrist_dev_r	arm_flex_l	arm_add_l	arm_rot_l	elbow_flex_l	pro_sup_l	wrist_flex_l	wrist_dev_l
1.457627	-0.754263	-4.376082	87.321111	0.199513	0.993573	0.411170	1.518103	0.810878	-1.988542	7.677326	0.133995	22.225166	-3.860567	0.000000	2.606140	-0.262697	-5.654073	7.379498	0.128797	25.905921	5.897818	0.000000	0.089583	0.223534	0.287166	0.166364	0.297300	0.305114	0.147175	0.543500	0.305114	0.102384	0.543500	0.251271	0.083186	0.455830	0.233323	0.051188	0.346254	0.215375	0.639880	2.528658	1.597134	0.000000	0.000000	23.476303	-2.675984	-2.221031	17.234744	-12.210812	76.427598	50.335639	14.387932	-4.463378	6.394824	18.144026	-4.775836	62.098579	49.550151	62.877663	-4.157437	13.121562
1.474576	-0.835558	-4.352908	87.122052	0.199970	0.993391	0.410791	1.586743	0.700446	-1.948894	7.916360	0.138167	22.483939	-3.472503	0.000000	2.616874	-0.186638	-5.906973	7.537382	0.131552	26.151926	5.963578	0.000000	0.089653	0.218630	0.356620	0.166495	0.290777	0.378909	0.147291	0.531576	0.378909	0.102465	0.531576	0.312043	0.083252	0.445830	0.289754	0.051228	0.338657	0.267465	0.640384	2.473182	1.983416	0.000000	0.000000	23.930307	-2.785538	-2.858063	16.576026	-12.347789	75.077935	50.653318	14.821021	-4.724704	6.508143	18.228420	-4.748640	62.373365	49.601834	61.861795	-4.293505	13.282924
1.491525	-0.927810	-4.311175	86.919812	0.200453	0.993249	0.410389	1.611694	0.589789	-1.808315	8.102658	0.141418	22.683026	-3.253369	0.000000	2.601905	-0.095776	-6.101391	7.661727	0.133722	26.412357	6.022420	0.000000	0.089032	0.212843	0.409397	0.165341	0.283082	0.434985	0.146270	0.517508	0.434985	0.101754	0.517508	0.358223	0.082675	0.434030	0.332635	0.050873	0.329694	0.307048	0.635945	2.407728	2.276946	0.000000	0.000000	24.365748	-2.844428	-3.436535	15.969288	-12.417738	73.848093	50.897203	15.021609	-4.975448	6.694815	18.228766	-4.763523	62.443186	49.711550	61.109344	-4.343043	13.596142
1.508475	-1.020898	-4.261325	86.721912	0.200927	0.993163	0.409995	1.618922	0.472297	-1.825799	8.264684	0.144246	22.877560	-2.871751	0.000000	2.592482	0.003528	-6.161053	7.788199	0.135930	26.668927	5.942335	0.000000	0.089371	0.207246	0.448431	0.165970	0.275637	0.476458	0.146827	0.503897	0.476458	0.102142	0.503897	0.392377	0.082989	0.422616	0.364350	0.051066	0.321024	0.336323	0.638365	2.344406	2.494040	0.000000	0.000000	24.776519	-2.809976	-3.935339	15.385990	-12.421205	72.636641	51.030904	15.591160	-5.202397	6.933850	18.239163	-4.809241	62.575430	49.792631	60.227540	-4.383874	13.875655
1.525424	-1.097434	-4.165603	86.540107	0.201395	0.993180	0.409563	1.546422	0.380237	-1.824137	8.365001	0.145997	22.998270	-2.598486	0.000000	2.511234	0.090797	-6.132596	7.850501	0.137017	26.913448	5.841155	0.000000	0.085665	0.203204	0.465638	0.159088	0.270261	0.494740	0.140738	0.494069	0.494740	0.097906	0.494069	0.407433	0.079548	0.414373	0.378331	0.048949	0.314762	0.349228	0.611894	2.298680	2.589738	0.000000	0.000000	25.103824	-2.640743	-4.315803	14.954683	-12.348400	71.730124	51.044193	16.018691	-5.378746	7.282704	18.201947	-4.885321	62.575969	49.875945	59.656759	-4.351882	14.183872
1.542373	-1.161763	-4.040500	86.372681	0.201871	0.993272	0.409082	1.413074	0.308843	-1.830318	8.407772	0.146743	23.061906	-2.390611	0.000000	2.385885	0.163667	-6.084629	7.878538	0.137506	27.161739	5.787102	0.000000	0.080069	0.199855	0.471651	0.148697	0.265807	0.501129	0.131546	0.485928	0.501129	0.091511	0.485928	0.412695	0.074353	0.407545	0.383217	0.045752	0.309576	0.353738	0.571928	2.260801	2.623183	0.000000	0.000000	25.371800	-2.320350	-4.583542	14.609276	-12.224371	70.966917	50.981283	16.332302	-5.583926	7.774314	18.151860	-4.975851	62.522062	49.938384	59.337142	-4.213828	14.472617
1.559322	-1.210612	-3.900814	86.207926	0.202366	0.993423	0.408524	1.236725	0.262439	-1.796502	8.399089	0.146592	23.069332	-2.291854	0.000000	2.222998	0.221822	-5.982274	7.865961	0.137287	27.391342	5.692030	0.000000	0.074782	0.197904	0.469531	0.138878	0.263213	0.498877	0.122859	0.481185	0.498877	0.085468	0.481185	0.410840	0.069443	0.403567	0.381494	0.042730	0.306554	0.352148	0.534161	2.238734	2.611391	0.000000	0.000000	25.572991	-1.835266	-4.703803	14.398585	-12.060341	70.487938	50.851858	16.325150	-5.754935	8.378809	18.041775	-5.063627	62.285537	49.988868	59.495190	-3.966049	14.776728
1.576271	-1.245698	-3.747097	86.055769	0.202882	0.993625	0.407923	1.018740	0.242708	-1.691020	8.338603	0.145536	23.030395	-2.347311	0.000000	2.027388	0.260385	-5.903195	7.823870	0.136552	27.608133	5.654048	0.000000	0.068133	0.196973	0.463714	0.126529	0.261975	0.492697	0.111935	0.478921	0.492697	0.077869	0.478921	0.405750	0.063268	0.401668	0.376768	0.038931	0.305112	0.347786	0.486664	2.228203	2.579041	0.000000	0.000000	25.722459	-1.187915	-4.702597	14.321461	-11.878033	70.264852	50.660833	16.161754	-5.857668	9.064007	17.914258	-5.145335	61.951709	50.024268	59.919525	-3.633128	15.074254
1.593220	-1.267416	-3.598759	85.898412	0.203437	0.993854	0.407268	0.787408	0.246879	-1.513344	8.241413	0.143840	22.962688	-2.516367	0.000000	1.817662	0.279272	-5.860027	7.758604	0.135413	27.791088	5.643425	0.000000	0.062649	0.197385	0.461931	0.116345	0.262522	0.490801	0.102926	0.479923	0.490801	0.071601	0.479923	0.404189	0.058176	0.402508	0.375319	0.035798	0.305750	0.346448	0.447494	2.232862	2.569121	0.000000	0.000000	25.824130	-0.414412	-4.604741	14.338711	-11.706140	70.234850	50.448522	15.910012	-5.930209	9.782438	17.779298	-5.210468	61.564213	50.038863	60.593033	-3.267399	15.333101
1.610169	-1.270220	-3.453400	85.764551	0.203968	0.994109	0.406584	0.544435	0.266609	-1.464694	8.121759	0.141751	22.928986	-2.542448	0.000000	1.603172	0.279389	-5.751617	7.687723	0.134176	27.921780	5.536652	0.000000	0.056477	0.200010	0.462487	0.104883	0.266014	0.491393	0.092786	0.486305	0.491393	0.064548	0.486305	0.404676	0.052445	0.407861	0.375771	0.032271	0.309816	0.346865	0.403409	2.262557	2.572214	0.000000	0.000000	25.896120	0.453142	-4.447083	14.402514	-11.569802	70.261171	50.264864	15.667840	-6.056915	10.568137	17.662068	-5.247955	61.171314	50.012403	61.418080	-2.866159	15.513393
1.627119	-1.264503	-3.306837	85.655726	0.204486	0.994385	0.405912	0.292174	0.300774	-1.389170	7.989079	0.139436	22.883799	-2.645546	0.000000	1.382100	0.265343	-5.665684	7.614889	0.132905	28.003627	5.453296	0.000000	0.047860	0.203773	0.458206	0.088881	0.271018	0.486843	0.078629	0.495454	0.486843	0.054699	0.495454	0.400930	0.044443	0.415534	0.372292	0.027347	0.315644	0.343654	0.341859	2.305121	2.548402	0.000000	0.000000	25.939024	1.374472	-4.230398	14.601042	-11.440017	70.568845	50.020384	15.626060	-5.997990	11.209639	17.534131	-5.283473	60.707286	49.991094	62.266350	-2.482336	15.679182
1.644068	-1.256590	-3.185865	85.544955	0.205048	0.994630	0.405256	0.066762	0.348252	-1.212715	7.856179	0.137116	22.808329	-2.890717	0.000000	1.179384	0.236922	-5.682381	7.539050	0.131581	28.036655	5.459501	0.000000	0.041667	0.206957	0.459365	0.077379	0.275253	0.488075	0.068454	0.503195	0.488075	0.047621	0.503195	0.401944	0.038692	0.422027	0.373234	0.023808	0.320576	0.344523	0.297622	2.341139	2.554848	0.000000	0.000000	25.935448	2.277804	-4.110518	14.829578	-11.318934	70.945089	49.761970	15.618496	-5.850495	11.811290	17.398594	-5.306184	60.198379	49.967046	63.121350	-2.102647	15.917625
1.661017	-1.239025	-3.088714	85.479350	0.205548	0.994841	0.404684	-0.134628	0.405239	-1.138283	7.722586	0.134785	22.743746	-3.055455	0.000000	1.008291	0.194710	-5.685807	7.468531	0.130350	28.012015	5.449276	0.000000	0.037233	0.211412	0.450917	0.069145	0.281178	0.479099	0.061170	0.514028	0.479099	0.042554	0.514028	0.394552	0.034575	0.431112	0.366370	0.021275	0.327477	0.338188	0.265952	2.391537	2.507864	0.000000	0.000000	25.885662	3.191976	-3.983687	15.182895	-11.210599	71.588583	49.447391	16.100220	-5.463918	12.229671	17.277033	-5.338894	59.734810	49.942162	63.839476	-1.812738	16.097201
1.677966	-1.223251	-2.982683	85.422058	0.206067	0.995042	0.404165	-0.339914	0.467202	-0.932311	7.603481	0.132706	22.638959	-3.371449	0.000000	0.822909	0.142640	-5.820409	7.397837	0.129117	27.972917	5.603815	0.000000	0.030436	0.213971	0.446854	0.056523	0.284581	0.474783	0.050003	0.520249	0.474783	0.034785	0.520249	0.390997	0.028263	0.436329	0.363069	0.017391	0.331441	0.335141	0.217402	2.420480	2.485269	0.000000	0.000000	25.800858	4.058465	-4.035518	15.535543	-11.097476	72.228391	49.155133	16.383574	-5.121765	12.646076	17.180727	-5.364796	59.307352	49.891783	64.381403	-1.464675	16.316918
1.694915	-1.209592	-2.899593	85.385663	0.206538	0.995179	0.403764	-0.500428	0.525156	-0.757915	7.523585	0.131311	22.528640	-3.667637	0.000000	0.679579	0.086837	-6.010353	7.356207	0.128390	27.927113	5.793937	0.000000	0.026120	0.216364	0.442283	0.048507	0.287764	0.469925	0.042912	0.526067	0.469925	0.029852	0.526067	0.386997	0.024255	0.441210	0.359355	0.014925	0.335148	0.331712	0.186569	2.447553	2.459843	0.000000	0.000000	25.706369	4.816282	-4.180342	15.932316	-11.000559	72.981069	48.868627	16.811931	-4.732364	12.948767	17.101493	-5.384252	58.949880	49.822677	64.684949	-1.156193	16.469278
